<svg width="656" height="425" viewBox="0 0 656 425" fill="none" xmlns="http://www.w3.org/2000/svg">
<path fill-rule="evenodd" clip-rule="evenodd" d="M230.691 205.25C231.381 205.94 231.381 207.058 230.691 207.749L14.7485 423.691C14.0584 424.381 12.9396 424.381 12.2495 423.691C11.5594 423.001 11.5594 421.882 12.2495 421.192L228.192 205.25C228.882 204.559 230.001 204.559 230.691 205.25Z" fill="url(#paint0_linear)"/>
<path fill-rule="evenodd" clip-rule="evenodd" d="M171.439 225.25C172.129 225.94 172.408 226.779 172.063 227.124L121.124 278.063C120.779 278.408 119.94 278.129 119.25 277.439C118.559 276.749 118.28 275.909 118.625 275.564L169.564 224.625C169.909 224.28 170.749 224.559 171.439 225.25Z" fill="url(#paint1_linear)"/>
<path fill-rule="evenodd" clip-rule="evenodd" d="M468.262 178.8C468.952 179.49 468.952 180.609 468.262 181.299L374.991 274.57C374.301 275.26 373.182 275.26 372.492 274.57C371.802 273.88 371.802 272.761 372.492 272.071L465.763 178.8C466.453 178.11 467.572 178.11 468.262 178.8Z" fill="url(#paint2_linear)"/>
<path fill-rule="evenodd" clip-rule="evenodd" d="M310.019 157.25C310.709 157.94 310.709 159.058 310.019 159.749L216.749 253.019C216.058 253.709 214.94 253.709 214.25 253.019C213.559 252.329 213.559 251.21 214.25 250.52L307.52 157.25C308.21 156.559 309.329 156.559 310.019 157.25Z" fill="url(#paint3_linear)"/>
<path fill-rule="evenodd" clip-rule="evenodd" d="M729.691 142.25C730.381 142.94 730.381 144.058 729.691 144.749L513.749 360.691C513.058 361.381 511.94 361.381 511.249 360.691C510.559 360.001 510.559 358.882 511.25 358.192L727.192 142.25C727.882 141.559 729.001 141.559 729.691 142.25Z" fill="url(#paint4_linear)"/>
<path fill-rule="evenodd" clip-rule="evenodd" d="M686.648 212.194C687.338 212.884 687.338 214.003 686.648 214.693L593.377 307.964C592.687 308.654 591.569 308.654 590.878 307.964C590.188 307.273 590.188 306.155 590.878 305.464L684.149 212.194C684.839 211.504 685.958 211.504 686.648 212.194Z" fill="url(#paint5_linear)"/>
<path fill-rule="evenodd" clip-rule="evenodd" d="M219.691 37.8358C220.381 38.5259 220.381 39.6448 219.691 40.3348L3.74853 256.277C3.05842 256.967 1.93958 256.967 1.2495 256.277C0.55941 255.587 0.559404 254.468 1.24951 253.778L217.192 37.8358C217.882 37.1457 219.001 37.1457 219.691 37.8358Z" fill="url(#paint6_linear)"/>
<path fill-rule="evenodd" clip-rule="evenodd" d="M210.006 1.24951C210.696 1.9396 210.696 3.05845 210.006 3.74853L108.127 105.628C107.437 106.318 106.318 106.318 105.628 105.628C104.938 104.938 104.938 103.819 105.628 103.129L207.507 1.24951C208.197 0.559428 209.316 0.559428 210.006 1.24951Z" fill="url(#paint7_linear)"/>
<defs>
<linearGradient id="paint0_linear" x1="52.3586" y1="461.196" x2="268.199" y2="245.356" gradientUnits="userSpaceOnUse">
<stop stop-color="#393F54"/>
<stop offset="1" stop-color="#111319"/>
</linearGradient>
<linearGradient id="paint1_linear" x1="158.368" y1="315.935" x2="209.935" y2="264.367" gradientUnits="userSpaceOnUse">
<stop stop-color="#393F54"/>
<stop offset="1" stop-color="#111319"/>
</linearGradient>
<linearGradient id="paint2_linear" x1="411.87" y1="312.806" x2="506.499" y2="218.177" gradientUnits="userSpaceOnUse">
<stop stop-color="#393F54"/>
<stop offset="1" stop-color="#111319"/>
</linearGradient>
<linearGradient id="paint3_linear" x1="253.627" y1="291.256" x2="348.257" y2="196.626" gradientUnits="userSpaceOnUse">
<stop stop-color="#FF6A00"/>
<stop offset="1" stop-color="#111319"/>
</linearGradient>
<linearGradient id="paint4_linear" x1="551.359" y1="398.196" x2="767.199" y2="182.356" gradientUnits="userSpaceOnUse">
<stop stop-color="#FF6A00"/>
<stop offset="0.270833" stop-color="#FF6A00"/>
<stop offset="1" stop-color="#111319"/>
</linearGradient>
<linearGradient id="paint5_linear" x1="630.256" y1="346.2" x2="724.886" y2="251.571" gradientUnits="userSpaceOnUse">
<stop stop-color="#393F54"/>
<stop offset="1" stop-color="#111319"/>
</linearGradient>
<linearGradient id="paint6_linear" x1="41.3586" y1="293.782" x2="257.199" y2="77.9422" gradientUnits="userSpaceOnUse">
<stop stop-color="#FF6A00"/>
<stop offset="1" stop-color="#111319"/>
</linearGradient>
<linearGradient id="paint7_linear" x1="145.057" y1="143.813" x2="248.192" y2="40.6775" gradientUnits="userSpaceOnUse">
<stop stop-color="#393F54"/>
<stop offset="1" stop-color="#111319"/>
</linearGradient>
</defs>
</svg>
