<svg width="22" height="21" viewBox="0 0 22 21" fill="none" xmlns="http://www.w3.org/2000/svg">
<path d="M0.6875 4.5H18.5625C18.9423 4.5 19.25 4.16437 19.25 3.75V0.75C19.25 0.335625 18.9423 0 18.5625 0H0.6875C0.307656 0 0 0.335625 0 0.75V3.75C0 4.16437 0.307656 4.5 0.6875 4.5ZM21.3125 8.25H3.4375C3.05766 8.25 2.75 8.58562 2.75 9V12C2.75 12.4144 3.05766 12.75 3.4375 12.75H21.3125C21.6923 12.75 22 12.4144 22 12V9C22 8.58562 21.6923 8.25 21.3125 8.25ZM18.5625 16.5H0.6875C0.307656 16.5 0 16.8356 0 17.25V20.25C0 20.6644 0.307656 21 0.6875 21H18.5625C18.9423 21 19.25 20.6644 19.25 20.25V17.25C19.25 16.8356 18.9423 16.5 18.5625 16.5Z" fill="#444444"/>
</svg>
