<svg width="30" height="30" viewBox="0 0 30 30" fill="none" xmlns="http://www.w3.org/2000/svg">
<path d="M28.3771 0.00100708H18.7042L18.1182 11.9171L18.7042 24.8014L28.3771 15.1286V0.00100708Z" fill="#FF7DCD"/>
<path d="M6.02654 0L1.62286 4.99389V25.283H8.26189V30H9.72585L13.7746 25.283H18.2217L18.7042 24.8005V5.85938e-05L6.02654 0Z" fill="#FD93EF"/>
<path d="M18.7042 1.75787L18.1182 9.9757L18.7042 19.0781H21.9408L26.6193 14.3995V1.75787H18.7042Z" fill="#F7F0EB"/>
<path d="M7.82776 1.75787V19.0781H13.8556V22.4834L16.7674 19.0781H18.7042V1.75787H7.82776Z" fill="#FFFBF5"/>
<path d="M15.0063 6.50824H16.7641V13.4424H15.0063V6.50824Z" fill="#FD93EF"/>
<path d="M20.6969 6.50824H22.4547V13.4424H20.6969V6.50824Z" fill="#FF7DCD"/>
</svg>
